{"title":"Modern Family S05E17 HDTV x264 AAC E-Subs [GWC].mp4","uid":9754714,"size":81968915,"categoryP":"video","categoryS":"tv_shows","magnet":"?xt=urn:btih:8b46da5b26853732bf882cd43a16dc5e85fe88f9&amp;dn=Modern+Family+S05E17+HDTV+x264+AAC+E-Subs+%5BGWC%5D.mp4&amp;tr=udp%3A%2F%2Ftracker.openbittorrent.com%3A80&amp;tr=udp%3A%2F%2Fopen.demonii.com%3A1337&amp;tr=udp%3A%2F%2Ftracker.coppersurfer.tk%3A6969&amp;tr=udp%3A%2F%2Fexodus.desync.com%3A6969","seeders":1,"leechers":1,"uploader":"canc232","files":1,"time":1394706883,"description":"Modern Family S05E17 HDTV x264 AAC E-Subs [GWC]\n\n\nSTORYLINE :\nThree different, but related families face trials and tribulations in their own uniquely comedic ways.\n\n\nSCREENS : &lt;a href=&quot;\nhttp://i.imgur.com/soWydu7.jpg&quot; rel=&quot;nofollow&quot; target=&quot;_NEW&quot;&gt;\nhttp://i.imgur.com/soWydu7.jpg&lt;/a&gt; &lt;a href=&quot;\nhttp://i.imgur.com/t2Egary.jpg&quot; rel=&quot;nofollow&quot; target=&quot;_NEW&quot;&gt;\nhttp://i.imgur.com/t2Egary.jpg&lt;/a&gt; &lt;a href=&quot;\nhttp://i.imgur.com/mEyNBPH.jpg&quot; rel=&quot;nofollow&quot; target=&quot;_NEW&quot;&gt;\nhttp://i.imgur.com/mEyNBPH.jpg&lt;/a&gt;\n\n\nMEDIA INFO :\nGeneral \nFormat : MPEG-4 \nFormat profile : Base Media \nFile size : 78.2 MiB \nDuration : 21mn 15s \nOverall bit rate mode : Variable \nOverall bit rate : 514 Kbps \n\nVideo \nFormat : AVC \nFormat profile : &lt;a class=&quot;__cf_email__&quot; href=&quot;/cdn-cgi/l/email-protection&quot; data-cfemail=&quot;a4eccdc3cce4e8978a94&quot;&gt;[email&amp;#160;protected]&lt;/a&gt;&lt;script cf-hash='f9e31' type=&quot;text/javascript&quot;&gt;\n/* &lt;![CDATA[ */!function(){try{var t=&quot;currentScript&quot;in document?document.currentScript:function(){for(var t=document.getElementsByTagName(&quot;script&quot;),e=t.length;e--;)if(t[e].getAttribute(&quot;cf-hash&quot;))return t[e]}();if(t&amp;&amp;t.previousSibling){var e,r,n,i,c=t.previousSibling,a=c.getAttribute(&quot;data-cfemail&quot;);if(a){for(e=&quot;&quot;,r=parseInt(a.substr(0,2),16),n=2;a.length-n;n+=2)i=parseInt(a.substr(n,2),16)^r,e+=String.fromCharCode(i);e=document.createTextNode(e),c.parentNode.replaceChild(e,c)}}}catch(u){}}();/* ]]&gt; */&lt;/script&gt; \nFormat settings, CABAC : Yes \nFormat settings, ReFrames : 4 frames \nDuration : 21mn 15s \nBit rate : 451 Kbps \nMaximum bit rate : 1 579 Kbps \nWidth : 720 pixels \nHeight : 404 pixels \nDisplay aspect ratio : 16:9 \nFrame rate : 23.976 fps \nBits/(Pixel*Frame) : 0.065 \nStream size : 68.5 MiB (88%) \nTitle : Modern Family S05E17 HDTV x264 AAC E-Subs [GWC] \nWriting library : x264 core \n\nAudio \nFormat : AAC \nFormat profile : HE-AAC / LC \nDuration : 21mn 15s \nBit rate mode : Variable \nChannel(s) : 2 channels \nSampling rate : 48.0 KHz / 24.0 KHz \nStream size : 9.12 MiB (12%) \nLanguage : English \n\nText \nFormat : Timed Text \nDuration : 21mn 12s \nStream size : 21.5 KiB (0%) \nTitle : Captions by vitac/Resync bycanc232 \nLanguage : English ","torrent":{"xt":"urn:btih:8b46da5b26853732bf882cd43a16dc5e85fe88f9","amp;dn":"Modern+Family+S05E17+HDTV+x264+AAC+E-Subs+%5BGWC%5D.mp4","amp;tr":["udp%3A%2F%2Ftracker.openbittorrent.com%3A80","udp%3A%2F%2Fopen.demonii.com%3A1337","udp%3A%2F%2Ftracker.coppersurfer.tk%3A6969","udp%3A%2F%2Fexodus.desync.com%3A6969"],"infoHash":"8b46da5b26853732bf882cd43a16dc5e85fe88f9","infoHashBuffer":{"type":"Buffer","data":[139,70,218,91,38,133,55,50,191,136,44,212,58,22,220,94,133,254,136,249]},"announce":[],"urlList":[]}}